<svg width="20" height="20" viewBox="0 0 20 20" fill="none" xmlns="http://www.w3.org/2000/svg">
<path d="M16.6366 4.1141H16.2699L13.1716 1.01576C13.0505 0.896745 12.8876 0.830048 12.7178 0.830048C12.5481 0.830048 12.3851 0.896745 12.2641 1.01576C12.0166 1.26326 12.0166 1.6666 12.2641 1.92326L14.4549 4.1141H5.54492L7.73575 1.92326C7.98325 1.67576 7.98325 1.27243 7.73575 1.01576C7.61471 0.896745 7.45176 0.830048 7.282 0.830048C7.11225 0.830048 6.94929 0.896745 6.82825 1.01576L3.73909 4.1141H3.37242C2.54742 4.1141 0.833252 4.1141 0.833252 6.46077C0.833252 7.34993 1.01659 7.9366 1.40159 8.3216C1.62159 8.55076 1.88742 8.66993 2.17159 8.7341C2.43742 8.79827 2.72159 8.80743 2.99659 8.80743H17.0033C17.2874 8.80743 17.5533 8.7891 17.8099 8.7341C18.5799 8.55077 19.1666 8.00077 19.1666 6.46077C19.1666 4.1141 17.4524 4.1141 16.6366 4.1141ZM16.4624 10H3.46409C2.89575 10 2.46492 10.5042 2.55659 11.0633L3.32659 15.775C3.58325 17.3517 4.27075 19.1667 7.32325 19.1667H12.4658C15.5549 19.1667 16.1049 17.6175 16.4349 15.885L17.3608 11.0908C17.3869 10.9582 17.3833 10.8215 17.3503 10.6904C17.3172 10.5594 17.2555 10.4373 17.1696 10.3329C17.0837 10.2286 16.9757 10.1446 16.8534 10.0871C16.7311 10.0295 16.5976 9.99976 16.4624 10ZM9.99992 16.875C8.96742 16.8726 7.97791 16.4614 7.24782 15.7313C6.51774 15.0012 6.10651 14.0117 6.10408 12.9792C6.10408 12.6033 6.41575 12.2917 6.79158 12.2917C7.16742 12.2917 7.47908 12.6033 7.47908 12.9792C7.47908 14.3725 8.60659 15.5 9.99992 15.5C11.3933 15.5 12.5208 14.3725 12.5208 12.9792C12.5208 12.6033 12.8324 12.2917 13.2083 12.2917C13.5841 12.2917 13.8958 12.6033 13.8958 12.9792C13.8933 14.0117 13.4821 15.0012 12.752 15.7313C12.0219 16.4614 11.0324 16.8726 9.99992 16.875Z" fill="#727273"/>
</svg>
